<svg version="1.2" xmlns="http://www.w3.org/2000/svg" viewBox="0 0 133 166" width="133" height="166">
	<style>
		.s0 { fill: #000000 } 
	</style>
	<path id="2" class="s0" aria-label="2"  d="m288.6 187h8.3v2h-11.1v-2q1.3-1.4 3.6-3.7 2.4-2.4 3-3.1 1.1-1.2 1.5-2.1 0.5-0.9 0.5-1.8 0-1.4-1-2.2-1-0.9-2.5-0.9-1.1 0-2.4 0.4-1.2 0.4-2.6 1.1v-2.4q1.4-0.5 2.6-0.8 1.3-0.3 2.3-0.3 2.7 0 4.4 1.3 1.6 1.4 1.6 3.7 0 1.1-0.4 2-0.4 1-1.5 2.3-0.3 0.3-1.9 2-1.5 1.6-4.4 4.5z"/>
	<path id="2" class="s0" aria-label="2"  d="m66.8 27.4l-1 1.3q-2-0.7-2-1.7 0-0.4 1.5-0.4 1.5 0 1.5 0.8zm57.1 107.8q-3.9-0.3-11.4-2.1v-3q3.5-1.8 7.2-1.8 2.7 0 3.1 2.4 0.7 2.2 1.1 4.5zm-5.9-82.9q0 2.7-0.4 5.4h-2.1q0 1 1 3.1l-2 3q0 0.5 0.5 1.5 0.8 1.1 0.8 1.7 0 1.6-2.3 2.4-2.7 1-3.1 1.8-0.9 1.5-1.6 6.1-0.7 4.5-1.5 6.2h-2.2l-3 5.2q-1.8 0.5-5.2 2.1-1.6 1.4-3.6 4.8-0.5 1.1-6.6 1.1-0.6 0-1.2 0.3v2.4q0 1.9-1 2.8h-3q-1.2 0.5-1.7 2.3-0.5 1.6-3.8 1.6-1.2 0-3.6 3.5-2.2 3.4-3.4 3.9h-3.2q-0.7 0.7-1.5 3.1-0.5 2.3-1.4 3.2h-3.2q-1.3 0.4-2.7 3.9-1.3 3.3-3.3 3.6l2-2.4q-0.2 0.7-1.3 2.1-0.9-0.6-0.9-3.2l-3.1 2.1q-1.6 0-1.6-0.6 1.6-2.2 3.7-2.4 0.8-1.9 0.8-2.2 0-1.1-1.4-1.1-0.7 0-1.4 0.6-0.4 0.6-0.8 0.6h-0.3v-3.1l-1-0.2q-0.4 0-1.3 0.8-0.9 0.7-1.9 0.4-0.2-0.4-0.2 3.9 0 0.9 0.2 1.2h2.1q0.2 1.2 0.6 2.6 0.4 1.2 1.5 1.6v1.1q3.1 1.6 8.2 1.6 3.4 0 10.2-0.9 6.9-0.9 10.2-0.9 4.8 0 7.5 1.2 0.6 0.3 0.9 1.7 0.4 1.3 2.2 1.3l-1-3q2 0.3 5.7 0.6 3.9 0.2 5.7 0.5v1.9q0.9-0.3 1.3-0.3 0.7 0 0.7 0.6 0 0.8-0.8 2.4-0.7 1.5-0.7 2.4 0 0.7 0.6 1.2 0.2-0.3 0.5-0.3 0.2 0 0.2 0.2 0 1.5-1.8 4.1h-4.2q0.3 0.2 0.5 0.4 0 0.6-1.4 1.3-1.2 0.6-1.6 0.5h-0.5v-2.2h1v-0.8q-3.1-1.1-3.1-1.1-3.3 0-3.6 1.1-0.3 1.5-1.6 1.9-4.9 0.8-9.7 1.5-5.8 1.2-5.8 6.2 0 1.3 1.1 4.7-2.3 1.5-9.8 1.5-5.9 0-17.4-1.1-11.6-1.4-17.3-1.4-2.2 0-6.4 0.6-4.2 0.4-6 0.4 0-0.7-0.6-2.3-0.6-1.8-0.6-2.9 0-1.5 1.1-1.6 1.9-0.3 2.1-0.3-1.1-5.3-1.1-6.9 0-1.2 3.2-11.7h2.1q0-2 1-5.3 0.9-1.2 2-1.2 0.1 0 0.6 0 0.4 0.2 0.4 0.2 1.1 0 1.1-4.4v-0.7h2.1q0.1-1.8 1-5.3h2.1q2.8-6 4.1-6.6 3.1-1.6 4.2-2.7 0.4-0.7 1-2.1 0.8-1.3 1-1.9h3.2v-2.1h0.5q1 0 1.5 2.1h0.4q1.7 0 4.8-2.1 1.6-0.2 5.1 1.2 2.7 0.9 5.3 1.9v-2.1q-0.6 0.3-0.9 0.3v-0.1q0-0.9 1.9-2.3l-4.2-1q0.3 0 0.3 0.3 0 0.7-4.3 1.8-0.2 0.4-0.2-3.3 0-1.2 1.2-2.7 1.8-2 2-2.3h1q-0.2 0.6-0.2-3.4l0.2-0.8q0.8-1 3.6-2.2 3-1.4 3.6-1.8 5.1-4.1 8.4-7.4 0.9-0.9 1.9-3.6 1.1-2.7 2.2-3.6 1.2 0 3.1-1 2.6-3.5 2.6-9.8 0-2.7-0.8-7.6-0.6-5-0.6-7.5l-0.1-0.9h-1.1l-4.2-7.4q-1.2-0.1-3-0.9l-0.1-0.6q0-2.1 1-0.4-2.3-0.8-2.3-1.5 0-0.3 0.4-1.1 0.4-0.7 0.4-1.3-0.6-1.1-2.6-1.4v-2.1q2.9 0 2.9-1.2 0-1-1.6-1-0.6 0-1.4 1.2-0.6 1.2-2 1v-1.9l-3.4 0.1-1.6-0.1q-0.5 1.3-0.5 3.1 0 3.8 2.4 4.1-0.6 0.1-1.8 0-1.2-0.3-1.6-0.3-2 0-4 2.5-1.7 2.6-7 2.6-0.5 0-1 0.3v3.1q-0.3 0.9-2.6 1.5-2.2 0.6-2.7 1.7v3q-1.7-1.2-2.4-1.2-0.7 0-0.7 0.4 0 0.3 0.6 1.2 0.6 0.9 0.6 1.7 0 1-1.4 4-1.6 3.8-1.8 4.2h-2.1q0.2-0.3 0.2 2.4 0 0.5-0.2 0.8-5.8-2-14.1-6.9-11.2-6.5-13.8-7.7 0.3-1.3 1.1-4h2.1q0.1-0.5 0-1.2-0.3-0.9-0.3-1.2 0-1.1 1.5-1.7 1.5-0.7 1.8-1.2 0.3-2.2 2.1-6.1 0.6-0.8 2.5-1.4 2.1-0.7 2.7-1.8 0-1.3 1.1-3h3q0.9-1.6 3.1-4.2 1.2-0.7 3.8-1.2 2.5-0.4 3.4-0.9 4.4-1.9 8.7-3.9 0.9-0.3 10.2-1l1.8-0.2q0.6-2.1 3.6-2.1 1.4 0 14.6 1.5 13.2 1.4 13.9 1.7 1.6 0.4 3.6 1.9 1.3 0.9 5 0.9l0.7 0.2v2.1q3.1 1.6 6.1 4.2-1 3.6-1 3.1v0.9q0.9 0.2 2.1 0 1.5-0.3 1.9-0.3 3.8 0 7.2 12.3 2.8 10.2 2.8 15.8zm5.8 87.1q-1.3 14-1.1 18.6-9-1-26.9-1 2.1-4.8 4.2-9.3 5.2 1 4.3 1h0.7l1.1-4.2h0.4q0.5 0 1 0.8 0.4 0.7 0.7 0.7 0.6 0 1-0.4l1.1-6.2q-0.9 0-2.8 0.2-1.8 0.1-2.8 0.1-0.7 0-0.7-0.3 0 0 3.2-3.1l-0.2 0.1-0.1-0.1q0-0.3 2.3-1.7 2.6-1.5 3.2-1.5v2.1q-0.4-0.1 3.8-0.1 0.8 0 1.3 0.1l1 2.1q1.9 0.8 5.3 2.1zm-19.6 5.7q0 0.6-0.8 0.6l-0.3-0.1q-1.4-0.9-1.4-1.8 0-0.3 0.5-0.3 2 0 2 1.6zm-14.3-2.2q0 1-1.4 2.7-0.5-0.9-0.5-1.8 0-1.2 1.6-1.2 0.3 0 0.3 0.3zm3.9 14.1q0 0-20.7 0-0.1-0.9-2.1-3.2l-0.2-1q-0.4-3.3 6.8-5.3 4.9-1 9.9-1.9l2.1 3.1q-0.4-0.1 3.3-0.1l0.9 0.1q0 0 0 8.3zm-9.4-135.5q-1.1-1-3-1v2.1q3 0 3-1.1zm-5.3 0.3q-0.4-0.4-1.2-0.4-0.9 0-2.1 1.2-1.2 1-1.2 1.9 0.4 0.5 1.1 0.5 0.1 0 1.5-0.5v-1.9q1.9 0 1.9-0.8zm-12.3-1.3l8.2-1.1v-2.1h-1.9v2.1h-0.6q0.6 0-4.7-1zm40.4 45.4h3.1q-0.6-0.4-0.4-1.2 0.3-1.5 0.3-1.3 0-0.6-1.1-0.6l-0.9 0.1zm7.2-3q0-0.7-0.4-2.4-0.3-1.6-0.3-2.4 0-1.3 0.7-4.6-0.9-0.5-4-2 0 0 0 6.2-1.8-0.5-3.9-0.5-2.7 0-7.4 1.1-5.2 1.3-7.3 1.5-0.6 2.4-2.1 7.2l2.1 1q1.2 3.5 1.6 3.5 0.3-4.8-0.6-8.6 1.8-0.6 4.1-2.1v2.1q5.4-1.3 9-1.3 3.7 0 8.5 1.3zm-52.8-39.4q0-1.2-0.9-3-1.5-0.2-4.2-1.1 0.5 0.5 0.9 3.3 0.3 2.3 2.9 2.3 1.3 0 1.3-1.5zm24.8 42.7q-0.2-0.4-0.9-0.4-1.5 0-1.5 1.6 0 0.9 0.4 1.7 2-0.6 2-2.9zm-2 32.9v-2.1q-1.6-0.5-6.1-2.1l-1.1 3.1h-7.2q-1.5-4.8-2.1-7.2l-3.1 1.1q-0.2 0-0.6-1.1-0.3-1.2-1.8-1.2l-0.6 0.2q-2.7 1.8-2.7 2.7 0 0.4 4.8 1.3v3.2q1 0.6 5.1 1.9 4.2 1.2 5.1 1.2l3.1-2.1h1.1q1.6 0 6.1 1.1zm-18 4q-0.9-0.6-3.6-1.9l-1 1.9 4 0.2q0.3 0 0.6-0.2zm3.3 7.4q-1.3-1.7-2.8-2.1l1 2.1q0.9 0.3 1.4 0.3 0.4-0.2 0.4-0.3zm21.9 28.9q-1-1-3-1v2.1q3 0 3-1.1zm-41.8-25.9q0-1.1-1.8-1.1-1.5 0.2-1.5 0.5 0 0.9 2.8 1.6 0.5-0.9 0.5-1zm16 30h2.1q-0.3-0.2-0.3-1.5 0-0.5-1.8-0.5zm4.8 2.3q-0.1-0.3-0.7-0.3-0.6 0-0.9 0.1v2.1q-2.7 0-2.7 0.9 0.7 0.5 1.6 0.5 0.5 0 1.1-0.3 1.6-2.1 1.6-3zm-16.2-5.9q0-1.6-0.9-4.6h-2.1q0 0 0 4.2l1.1 2.1q0.3 0.1 0.9 0.1 1 0 1-1.8zm-9.7-5.4q0-0.6-3.6-3.3 0.4 0.2 1.2 1.8 0.7 1.7 2.2 1.7 0.2 0 0.2-0.2zm11.2 9.6l-5.5-1.5-1.1 2 6.2-0.5q0.1 0 0.4 0zm-10.6 3.2l-0.2-0.6q0 0-4 0 0 0.1 0.1 0.1 0.2 0 0.2 0.2h-0.2q-1 0-3.3-1.4v-2.1l-3.1-0.9v-3.1h-3q0-2.4 0.1-4.7 0-3 0.9-4.6h2q0-1.4 1-3.2h3.2l-1.1-2.1q1.5-1.3 4.2-4-1.8-0.9-5.2-3.2v2.1q0.9-0.6 1.3-0.6 0.3 0 0.3 0.6 0 1.8-3 6.2-1.9 2.7-3.7 5.2h-2.1q0.3 0.2 0.3 0.6 0 0.8-0.5 2.1-0.3 1.4-0.3 2 0 1.6 1.5 2.5-1.5 0.6-4.2 2.1 2.9-0.1 7.4 1.1 1.6 8.5 7.8 8.5 3.6 0 3.6-2.8zm-18.8-15q-0.1-0.2-0.1-2.6 0-0.7-1.1-0.7l-0.9 0.1h0.5q0 0.3-1.2 1.1-1.2 0.6-1.2 1 0 0.6 1.8 0.8 1.2 0.1 2.2 0.3zm3.2 13.3h2.1q-0.5-0.1-0.5-1.5 0-0.6-1.6-0.6zm-9.9 4.6q0-2.2-2.6-2.5v4.2h0.6q2 0 2-1.7z"/>
</svg>